PathFileType	4	(X/Y/Z)	8_coords_data.trc
DataRate	CameraRate	NumFrames	NumMarkers	Units	OrigDataRate	OrigDataStartFrame	OrigNumFrames
30.0	30.0	8	21	m	30.0	43	53
Frame#	Time	THUMB_TIP	THUMB_IP	THUMB_MCP	THUMB_CMC	INDEX_TIP	INDEX_DIP	INDEX_PIP	INDEX_MCP	MIDDLE_TIP	MIDDLE_DIP	MIDDLE_PIP	MIDDLE_MCP	RING_TIP	RING_DIP	RING_PIP	RING_MCP	PINKY_TIP	PINKY_DIP	PINKY_PIP	PINKY_MCP	WRIST
X1	Y1	Z1	X2	Y2	Z2	X3	Y3	Z3	X4	Y4	Z4	X5	Y5	Z5	X6	Y6	Z6	X7	Y7	Z7	X8	Y8	Z8	X9	Y9	Z9	X10	Y10	Z10	X11	Y11	Z11	X12	Y12	Z12	X13	Y13	Z13	X14	Y14	Z14	X15	Y15	Z15	X16	Y16	Z16	X17	Y17	Z17	X18	Y18	Z18	X19	Y19	Z19	X20	Y20	Z20	X21	Y21	Z21
41	1.3999999999999937	0.4974017724070052	-0.013374250183069147	-0.16874864378698698	0.49577167687958956	-0.01799981137940798	-0.14629988052059695	0.48592413106724097	-0.02596341790599288	-0.11786703309788127	0.48021463070488857	-0.028329010591382042	-0.0736890343104856	0.5585781920480255	0.067854623564221	-0.15360466177117924	0.5483511796959968	0.05472289021498611	-0.14646562839150895	0.5318689706162445	0.03906469786228295	-0.13573401019586498	0.5070707005397832	0.011299259947473161	-0.11505159368778423	0.5656537752976132	0.0868854811693841	-0.1351059919685906	0.5555994127828456	0.07335646494110937	-0.12848213249569143	0.5360820215208804	0.05493789288939832	-0.1171138788081943	0.5114063726127528	0.022918692401453056	-0.0980867646792572	0.5658154016940657	0.08729772818859094	-0.11142055405878887	0.5544132417715932	0.07519515775051555	-0.10445502910414331	0.5377037243152505	0.059151245560237875	-0.09531364589333538	0.5176878757559883	0.02735964488664233	-0.08036771778353505	0.5607318148801379	0.0816397782803222	-0.07952584088112227	0.5505442093770629	0.06880219321468328	-0.07458528384813498	0.5374399284227792	0.05328720370759954	-0.06925847051685699	0.5190118222840877	0.023501769118723925	-0.06064939150148407	0.4622830810018608	-0.023011742144276925	-0.051989820119430985
42	1.4333333333333271	0.4972651338255395	-0.013040259008790467	-0.16875363673559218	0.4956362174994762	-0.01775289719596418	-0.14632290618753657	0.485837269270017	-0.02582998954583815	-0.11790528502094366	0.48018511139235476	-0.028282747220571114	-0.07372466606743625	0.5578616827269243	0.068438444383634	-0.15374017115621802	0.547733112186456	0.05524078109427388	-0.14658239618717678	0.5313763168906316	0.039477564464224346	-0.13581271271343312	0.5069319140869474	0.011443652877650479	-0.11507127913888482	0.565318689672649	0.08719446091887961	-0.1350961612950581	0.5552774736724371	0.07365456591598118	-0.12847458863083575	0.5357963800592468	0.05520343585185761	-0.11709687616343212	0.5112966857574645	0.023044577491987628	-0.09807791906507757	0.5656012932581103	0.08746248375852705	-0.11148037422898388	0.5542123487310004	0.07535443619899829	-0.1045027580992012	0.5375315474900723	0.05929630760242188	-0.09533393293255807	0.5175881457509528	0.027466793993037975	-0.0803718600660688	0.5607074171486793	0.0816324361888977	-0.07967912937636101	0.5504938054318693	0.06883001328987537	-0.07470116758333467	0.5373594870525115	0.053354717185831846	-0.06933302915350317	0.5189457298866941	0.023582620553368683	-0.06064745144412828	0.4622830810018609	-0.023011742144276925	-0.051989820119430985
43	1.4666666666666603	0.4970930115944129	-0.01281143735284107	-0.16878536429897004	0.49546972978392756	-0.017591228721622887	-0.1463684387596668	0.4857270729388705	-0.02573075594577523	-0.11794927736868363	0.48014219363782085	-0.02826343304974832	-0.07376461181738947	0.5573455110530915	0.06878036469634308	-0.1539218388338908	0.5472698373403829	0.0555549438696773	-0.14674067993071704	0.5309891477690517	0.0397467264200857	-0.13592175017087607	0.5068000852867971	0.011544481690457853	-0.1151092841363148	0.5651311681163356	0.0873249614669297	-0.13515045659421324	0.5550789308668217	0.07379677511311922	-0.1285216784069407	0.5355952882313992	0.0553565706810597	-0.1171306257708142	0.5112037868329461	0.023124305232986808	-0.09809687562497507	0.5655145171175322	0.08751326716210817	-0.1115553919413026	0.5541217547651676	0.07541226900903908	-0.10457178186613642	0.5374497328989802	0.05935856975353759	-0.09537926283666004	0.5175119517029781	0.027529921287777093	-0.0804078617057242	0.56072476609844	0.08157012699356003	-0.0798834501053568	0.5504943517606866	0.06879721220438106	-0.07486435952376141	0.5373391179352212	0.05335612343644058	-0.069449138414895	0.5189129610719373	0.023616690271751728	-0.060678373950342174	0.462283081001861	-0.023011742144276925	-0.051989820119430985
45	1.5000000000000004	0.49686343758976403	-0.012686023474751562	-0.16883493699027358	0.4952710395893113	-0.017513350908991976	-0.14642598390337586	0.485608085290424	-0.02568298441801986	-0.11798825539799435	0.4801036648031495	-0.028263089780171002	-0.07379623789008383	0.5570578908467565	0.06887266638645662	-0.15414075485894055	0.5469868755741497	0.055661562428633626	-0.14692678344268745	0.5307365081303299	0.039860301435982404	-0.13605224703955907	0.5067321941989709	0.011573049356249698	-0.11514147525890944	0.5651119033266563	0.08728237357867363	-0.13524065818495035	0.555029717642952	0.07378289170596786	-0.1285988571485	0.5355187120823542	0.0553832796886079	-0.1171890153605982	0.51117794648068	0.0231406528819752	-0.0981079234753689	0.5655091650456407	0.08748726068334711	-0.1116081475599568	0.5541034093456154	0.07540086755494257	-0.10462045566227024	0.5374180739386809	0.05936664012716508	-0.09541811290879662	0.5174914192311247	0.027533717673410507	-0.08044098654159618	0.5607422310393892	0.0815487014289451	-0.07990191994939705	0.5505023645398637	0.06878080220536553	-0.07488934740743744	0.5373350420753289	0.05335072247449424	-0.06947212693805313	0.5189194848363138	0.023604045244250083	-0.06070366662074286	0.4622830810018609	-0.023011742144276925	-0.05198982011943101
46	1.5333333333333339	0.49662420068860447	-0.012628895587995403	-0.16889283078615536	0.4950726238363674	-0.017486199185593465	-0.1464874918904287	0.4854921383624251	-0.02566285152511183	-0.11802388961309507	0.48006751998084585	-0.028271570623154663	-0.07382368486151342	0.5569085416794782	0.06883441861839323	-0.15435994151763627	0.5468065024048826	0.05566542360600901	-0.14711243347291322	0.5305508105147487	0.0399061207720528	-0.13618509672690346	0.5066842533985073	0.011577670092549952	-0.1151726616582075	0.5652129363368317	0.08712839572139197	-0.13533724311247947	0.5550760215329982	0.07367742757434204	-0.12868033586009348	0.5355072076618429	0.055349646511837824	-0.11725389656340088	0.511171614415836	0.02313314454000226	-0.0981221474780814	0.5656059963874254	0.08738171836009523	-0.11164291752837482	0.5541684569419012	0.07532541636474155	-0.10465519446367688	0.5374437447329914	0.0593335400232885	-0.0954506373527226	0.5174882608420327	0.027517846413084968	-0.08047528637922774	0.5608338154775045	0.08147103733675098	-0.07990334037020008	0.5505688764269397	0.06871923805078695	-0.07490107675672705	0.5373738273071451	0.05331200234075828	-0.0694863020151682	0.5189412554379639	0.02357329219454185	-0.06072657233173695	0.4622830810018609	-0.023011742144276925	-0.051989820119430985
47	1.5666666666666673	0.4963904453350688	-0.012617916059341372	-0.16895181792419733	0.4948853601184894	-0.017492247790303117	-0.14654700574762736	0.4853849154937748	-0.02566255188374944	-0.11805476675253707	0.4800356920992612	-0.02828549602501973	-0.07384621584767967	0.5568350148079861	0.06873133824220423	-0.1545706144581363	0.5466867164785598	0.05561615981672241	-0.14729022052066718	0.5304108913271977	0.039912042469598785	-0.1363135157788034	0.5066526062543417	0.011567335497135733	-0.1152005441489708	0.5653611004397909	0.08693090005441362	-0.13543387266312668	0.5551634503667583	0.07353377147437035	-0.12876117614689248	0.5355297275527601	0.055284832171650033	-0.11731990467958073	0.5111769214884841	0.02311048716802444	-0.09813917785853865	0.5657409699762972	0.08725225209612253	-0.11165913187848803	0.5542664672036093	0.07522895975617794	-0.10467513392403469	0.5374939016539383	0.05928496882943779	-0.0954745808314201	0.517493880911806	0.0274924989849189	-0.08050932555462503	0.5609448695140649	0.0813784395525734	-0.07989698371577636	0.5506506526914838	0.06864590815961213	-0.07490581708492358	0.5374255749057788	0.05326293501779389	-0.06949532044596768	0.5189688745512017	0.023535857132052973	-0.06074692039816176	0.4622830810018609	-0.023011742144276925	-0.051989820119430985
48	1.6000000000000005	0.49617736208373564	-0.012630904707345847	-0.1690046904086443	0.49472017406482005	-0.017513918535034256	-0.14659860241818656	0.4852920994616349	-0.02567426890939939	-0.11807948442613828	0.48001011893571854	-0.028301482946088807	-0.0738631025283703	0.5567746818201331	0.06862943992555282	-0.15476385430750444	0.5465853729189868	0.05556334131014706	-0.14745255817825945	0.5302954352538903	0.03990567394207978	-0.13643052495120783	0.5066335790665423	0.011551039383440043	-0.11522280572411356	0.5654833670885	0.08675861507171567	-0.1355244295463022	0.5552377066773728	0.0734057609414357	-0.12883655026245402	0.5355551348875437	0.055218102743454844	-0.11738163834609061	0.5111860079632227	0.023081362378618353	-0.09815864449317013	0.5658501235026975	0.08715492528031543	-0.1116564104456344	0.5543470165872235	0.0751548538458976	-0.10467953314557776	0.5375356353054428	0.05924673745850939	-0.09548772856737284	0.5174997033797074	0.02746784620487941	-0.08054168104445672	0.5610208703823143	0.08131244003390736	-0.07989220389795545	0.5507045237640059	0.0685943604550735	-0.07490989075270188	0.5374604284006995	0.05322653895312601	-0.0695028565109082	0.518992972541921	0.02350317363508092	-0.060764545502818706	0.4622830810018608	-0.023011742144276925	-0.051989820119430985
49	1.6333333333333337	0.4960001826996203	-0.012645635552047119	-0.16904431679660947	0.49458803138360796	-0.01753358608223421	-0.14663642157472107	0.4852193672432752	-0.0256901821878448	-0.11809665857297946	0.4799927417390769	-0.02831614721135034	-0.07387362505497902	0.5566649555797133	0.06859519536088521	-0.1549307692923198	0.5464603220450069	0.05555659995544038	-0.14759179904606187	0.5301830475681052	0.03991449841771144	-0.1365290313956507	0.5066234902519812	0.011537781512958367	-0.11523712469907299	0.565506931029244	0.0866810005377795	-0.1356030327689004	0.555244633270676	0.07334764708490404	-0.12890176942418805	0.5355522694140975	0.055178879596278874	-0.11743371624658186	0.511191034083093	0.023054436894578423	-0.09818018890085708	0.5658696055709231	0.08714617400235825	-0.11163456938811278	0.5543597243289219	0.07514673087006574	-0.1046677912008942	0.5375359974165168	0.05924477318976917	-0.09548792553135013	0.517497175165452	0.02745404952712971	-0.08057094440928875	0.561007396977994	0.08131471922167355	-0.07989840823630245	0.550687344856087	0.06859825145767984	-0.07491965620306812	0.5374485593706602	0.05322586431511034	-0.06951259679801136	0.519004209567407	0.023486686140842705	-0.06077928741070526	0.4622830810018609	-0.023011742144276925	-0.05198982011943096
